<svg width="512" height="512" viewBox="0 0 512 512" fill="none" xmlns="http://www.w3.org/2000/svg">
<g clip-path="url(#clip0_2_2)">
<path d="M0 110C0 49.2487 49.2487 0 110 0H402C462.751 0 512 49.2487 512 110V402C512 462.751 462.751 512 402 512H110C49.2487 512 0 462.751 0 402V110Z" fill="white"/>
<path d="M97 120.5C97 98.1325 115.132 80 137.5 80H386.5C408.868 80 427 98.1325 427 120.5C427 142.868 408.868 161 386.5 161H137.5C115.132 161 97 142.868 97 120.5Z" fill="white"/>
<path d="M325.405 116.508C344.709 96.7626 376.365 96.4056 396.111 115.71L414.022 133.222C417.971 137.083 418.042 143.414 414.181 147.363L171.135 395.955C154.716 412.748 110.321 400.11 110.321 400.11C110.321 400.11 94.0204 354.423 110.321 336.498L325.405 116.508Z" fill="white"/>
<path d="M99 373.085C99 349.29 118.29 330 142.085 330H386.5C408.868 330 427 348.132 427 370.5C427 392.868 408.868 411 386.5 411H136.915C115.975 411 99 394.025 99 373.085Z" fill="white"/>
<path d="M245.5 0C291.556 21.6239 306.816 40.01 322.5 79.5C242.869 79.1861 181.256 74.8556 128 81C107.897 89.461 100.553 96.7006 96.5 120.5C99.1647 146.44 107.366 153.937 128 161H278.5L110.321 336.498C97.917 354.024 99.6525 363.395 99 373.085C64.3186 395.544 31.6728 418.003 12 452.5C4.11921 434.084 1.01222 423.027 0.5 400.5V109.5C2.244 71.7202 11.7045 55.4905 34.5 30C61.1337 7.74823 79.5847 0.944281 115.5 0H245.5Z" fill="#67B52F"/>
<path d="M246 0C293.087 23.0691 307.405 41.603 322.5 79.5H381C410.173 81.3904 417.389 89.4935 425 108C428.696 128.538 426.186 139.462 410.5 157.5L265 306.5C384.625 312.839 438.151 294.924 512.5 229.5V113L508.5 79.5C486.364 24.16 464.286 5.84282 404.5 0H246Z" fill="#01ACE2"/>
<path d="M241.5 330L267 304C381.502 308.645 435.909 296.345 512 227.5V394L511 416.5C508.835 431.441 506.49 439.392 499.5 452.5C491.986 466.721 486.657 473.757 475 484.5C462.61 494.098 454.96 498.89 439 505.5C424.314 509.596 415.827 511.398 399.5 512H286.5C249.108 488.96 237.905 450.622 211.5 411H380.5L399.5 408.868C418.407 405.973 425.781 387.356 427 370.5L426.951 368.5C424.763 357.972 423.641 352.638 416 342.5C406.629 334.103 400.385 331.179 387 330H241.5Z" fill="#F87B01"/>
<path d="M287 512C250.607 489.185 238.488 451.953 211.5 411H136.915C118.005 410.135 110.321 400.11 110.321 400.11C110.321 400.11 98.132 389.205 99 373.085C64.3674 396.669 31.2852 418.927 12 453C25.0723 475.46 34.581 485.462 56 498C73.1279 507.531 84.8579 509.775 107 512H287Z" fill="#FDBF02"/>
</g>
<defs>
<clipPath id="clip0_2_2">
<path d="M0 110C0 49.2487 49.2487 0 110 0H402C462.751 0 512 49.2487 512 110V402C512 462.751 462.751 512 402 512H110C49.2487 512 0 462.751 0 402V110Z" fill="white"/>
</clipPath>
</defs>
</svg>
