<svg width="566" height="150" viewBox="0 0 566 150" fill="none" xmlns="http://www.w3.org/2000/svg">
<path d="M2 26.5V36.5H74.5L67.5 45.5L19.5 105L58 92.5L78 69L110.5 34L111 18.5L86 50L110.5 14H109.5H82.5H60.5H37H14.5L2 26.5Z" fill="#93E634"/>
<path d="M0 25L2 26.5V36.5L0 38.5V25Z" fill="#039226"/>
<path d="M73 38.5H0L2 36.5H74.5L73 38.5Z" fill="#026802"/>
<path d="M5 43.5L0 39V38.5H73L70 42L5 43.5Z" fill="#0B8908"/>
<path d="M0 25L2 26.5L14.5 14V11.5L0 25Z" fill="#F5F5F5"/>
<path d="M14.5 14V11.5L113.5 12L110.5 14H14.5Z" fill="#A4F668"/>
<path d="M110 14L113.5 12L113 35.5L110.5 34L111 18.5L85.5 50.5L110 14Z" fill="#36B01E"/>
<path d="M116 15.5L113.5 12L113 35.5L115.5 37L116 15.5Z" fill="#2E9B49"/>
<path d="M83.5 63L110.5 34L113 35.5L46.5 115.5L39 118.5L40 117.5L44 112L58 92.5L83.5 63Z" fill="#00820F"/>
<path d="M52 115.5H46.5L113 35.5L115.5 37L57.5 108.5L52 115.5Z" fill="#0B6D02"/>
<path d="M110 119H39V118.5L46.5 115.5H52L114 115L110 119Z" fill="#40B945"/>
<path d="M110 141.5V119L112 117V143.5L110 141.5Z" fill="#0D7C1D"/>
<path d="M114 145.5L112 143.5V117L114 115V145.5Z" fill="#136814"/>
<path d="M44 116.5L46.5 115.5L114 115L112 117L41.5 117.5L44 116.5Z" fill="#1A9728"/>
<path d="M9 145L114 145.5L111.5 143H17.5H4.5L5 143.5L7 145H9Z" fill="#03682B"/>
<path d="M110 141.5L112 143.5H5L4.5 143L3 141.5H110Z" fill="#06731D"/>
<path d="M20.5 104L58 92.5L39.5 118.5L110 119V141.5H3V123.5L20.5 104Z" fill="#03B81E"/>
<path d="M86 141.5L71 118.5L69 115.5H41.5L58 92.5L20.5 104L3 123.5V141.5H86Z" fill="#1E1E1E" fill-opacity="0.2"/>
<path d="M185.5 7.5C224.712 7.5 256.5 39.2878 256.5 78.5C256.5 117.712 224.712 149.5 185.5 149.5C146.288 149.5 114.5 117.712 114.5 78.5C114.5 39.2878 146.288 7.5 185.5 7.5ZM185 33.5C159.319 33.5 138.5 54.3188 138.5 80C138.5 105.681 159.319 126.5 185 126.5C210.681 126.5 231.5 105.681 231.5 80C231.5 54.3188 210.681 33.5 185 33.5Z" fill="#59E9F4"/>
<path d="M456 9.5C494.384 9.5 525.5 40.6162 525.5 79C525.5 117.384 494.384 148.5 456 148.5C417.616 148.5 386.5 117.384 386.5 79C386.5 40.6162 417.616 9.5 456 9.5ZM455.511 34.9512C430.372 34.9512 409.993 55.3301 409.993 80.4688C409.993 105.607 430.372 125.986 455.511 125.986C480.649 125.986 501.028 105.607 501.028 80.4688C501.028 55.3301 480.649 34.9513 455.511 34.9512Z" fill="#FE8B2F"/>
<path d="M413 64.5C415.154 58.6192 417.316 54.8781 422.5 49L394.5 46.5C393.226 49.0707 392.56 50.4966 391.5 53L413 64.5Z" fill="#FBA629"/>
<path d="M395 45.5L396.5 43L427 45L426.364 45.5H395Z" fill="black"/>
<path d="M124 114.5C142.964 115.272 136.858 114.822 154 114.5L166.5 122.5C149.716 122.446 149.069 122.506 130 122.5C129.378 122.546 126.997 118.828 124 114.5Z" fill="black"/>
<path d="M256.5 78C245.658 76.6583 239.807 74.9899 230 69.5C231.11 72.5309 231.275 74.3117 231.5 77.5C231.63 81.847 231.541 84.2589 231 88.5C228.298 96.6688 228.139 97.8116 225.5 102.5C221.799 108.834 219.121 112.142 213 117.5L190.5 149.5C192.872 149.12 194.195 148.905 196.5 148.5C200.747 147.933 203.29 147.344 208 146C212.502 144.236 215.117 143.058 220 140.5C226.168 136.912 229.271 134.541 234.5 130C240.966 123.493 243.787 119.493 248 112C250.566 107.415 251.799 104.601 253.5 99C254.777 94.5259 255.345 91.913 256 87C256.358 83.7674 256.471 81.8043 256.5 78Z" fill="#2FD0E2"/>
<path d="M166.5 147C169.263 147.665 170.793 147.987 173.5 148.5C179.95 149.459 183.751 149.639 190.779 149.487L214 116.5L213 117C204.136 122.879 198.832 125.171 188.5 126.5C165.933 132.195 153.663 136.09 137 130.5C139.952 132.992 141.6 134.341 144.5 136.5C147.642 138.697 149.393 139.773 152.5 141.5L155.5 143L159 144.5L162 145.5L166.5 147Z" fill="#28A8CF"/>
<path d="M129.719 122.5C132.499 125.96 134.299 127.608 137 130.5C148.784 134.203 155.617 133.959 168 131.5L189 126.5C178.547 126.553 173.329 125.96 166.5 122.5H129.719Z" fill="#007C9C"/>
<path d="M124 114.5C135.675 115.129 142.246 115.089 154 114.5C150.347 110.807 148.427 109.155 145.5 105L145.423 104.897C140.051 97.7496 138.08 95.1277 136.5 88.5C132.616 63.3525 135.887 50.0547 139.5 24.5C136.121 27.4216 134.374 29.1572 131.5 32.5C125.177 39.9115 122.541 44.5485 119 53.5C115.733 63.0608 114.925 68.2934 114.5 77.5C114.834 93.167 117.02 101.205 124 114.5Z" fill="#24B0C9"/>
<path d="M142.5 22L139.5 24.5L138 34.5L137 41.5L136.5 45L136 49L135.5 53L135 59V59.5C134.53 65.2732 134.312 68.4754 135 74V74.5V76L135.5 81.5L136 85.5L136.5 88.5L137 90.5L137.5 92L138 93.5L138.5 94.5L139 95.5L139.5 96.5C139.869 97.1466 140.084 97.4871 140.5 98C142.064 100.526 142.608 101.246 144 103L146.5 106.5L146 105.5C144.481 102.779 143.639 101.253 142.5 98.5C141.199 95.6812 140.445 94.315 139.5 88.5L139.471 88.3701C138.647 84.6771 138.472 83.8959 138.5 80.5C138.495 77.9758 138.611 76.4359 139 73.5C139.242 71.2064 139.485 70.0259 140 68C140.658 65.8044 141.107 64.4767 142 62C142.556 60.7762 142.887 60.1235 143.5 59V58.5V57.5C142.601 53.1112 142.225 50.6086 142 46C140.994 36.8412 141.392 31.1875 143 21.5L142.5 22Z" fill="#1991B4"/>
<rect x="262.5" y="42.5" width="30" height="75" fill="#3BCEE0"/>
<path d="M261.5 12.5H321.5C336.412 12.5 348.5 24.5883 348.5 39.5H261.5V12.5Z" fill="#F5E842"/>
<path d="M262.5 120.5H349.5C349.5 135.412 337.412 147.5 322.5 147.5H262.5V120.5Z" fill="#F5E842"/>
<path d="M351.611 75.2675C350.168 53.6549 346.043 44.2505 323.5 39.8985V12.5C343.058 14.7835 345.345 15.6798 359.365 26.4483C372.382 37.9207 376.293 45.9854 379.237 62.3155C382.892 82.7084 382.03 92.3672 377.298 107.648C361.552 138.638 351.173 143.916 323.5 147.5V120.6C346.698 109.331 352.166 99.0455 351.611 75.2675Z" fill="#F5E842"/>
<path d="M493 40.5H514C515.055 42.3245 515.61 42.8128 516.5 44.5L484.5 45.5C481.933 43.2338 480.377 42.1827 477.5 40.5H493Z" fill="black"/>
<path d="M397.809 41H433C430.965 42.0173 428.729 43.7412 426.5 45.5H395C395.122 45.168 396 44 396 44C396 44 396.791 42.5346 397.5 41.5C397.595 41.3082 397.668 41.1979 397.809 41Z" fill="black"/>
<path d="M470.391 123.5H509.5L513.251 118.5H480.5L470.391 123.5Z" fill="black"/>
<path d="M500.5 132.5L496 136H482V132.5H500.5Z" fill="black"/>
<path d="M517.5 10V37V38.5L511.5 30.781V15.5H510.18H496L485.296 10H517.5Z" fill="#F79B32"/>
<path d="M517.5 148.5V123V121.5L511 127.5L510.5 142.5H494.5L483 148.5H485H517.5Z" fill="#EF5316"/>
<path d="M262.5 48.7222V42.5H292.5V50.5C279.271 49.5826 268.204 45.0615 262.5 48.7222Z" fill="#28A8CF"/>
<path d="M545 0.5V20H549L549.5 5L553 20H557L561.5 5V20H566L565.5 0.5H558L555.5 11L551.5 0.5H545Z" fill="#F5BF0E"/>
<path d="M527.5 3.5V0H542.5V4H537.5V19.5H532.5V4H527.5V3.5Z" fill="#F5BF0E"/>
<path d="M292.5 117.5H262.5V112.283L292.5 102.5V104.457V106.413V117.5Z" fill="#28A8CF"/>
<path d="M321 13H261.5V14.5C284.517 14.9961 297.562 14.5863 321 13Z" fill="#F5AD03"/>
<path d="M262.5 148V121V120.5H323C328.161 118.772 331.12 117.105 336.5 113C332.932 134.349 322.454 142.828 314.5 148H311.5H262.5Z" fill="#F5AD03"/>
<path d="M377.5 106.5C363.489 138.174 344.646 148.648 314.5 148C320.239 144.667 332.495 133.984 336 115.5C360.551 118.844 366.562 120.248 377.5 106.5Z" fill="#F5B71D" fill-opacity="0.88"/>
<path d="M324.5 120C323.389 120.351 322.759 120.528 321.5 120.5L323 121L324.5 120Z" fill="#F5AD03"/>
<path d="M426.389 45.5H395L394.5 46.5L422.5 49L424 47.5L426.389 45.5Z" fill="#E46217"/>
<path d="M390.5 55.5L391.5 53L389 97C387.61 92.7211 385.564 79.626 387 70C387.515 66.4177 387.92 64.3533 389 60.5C389.523 58.7712 389.853 57.6653 390.5 55.5Z" fill="#E76119"/>
<path d="M455 34.5C443.103 32.4023 407.5 41 407.5 41H432.5C440.761 36.2701 445.837 35.4701 455 34.5Z" fill="#E55F17"/>
<path d="M464 148C477.49 146.117 484.302 143.286 495.5 136H482V132.5H500.5L507 126C490.562 126.779 473.054 130.55 459.5 126C454.824 126.16 452.458 126.091 449 125.5L464 148Z" fill="#FE4E1A" fill-opacity="0.56"/>
<path d="M507 126C482.144 128.567 470.214 129.377 459.5 126C463.861 125.443 466.268 124.881 470.5 123.5H509.5L507 126Z" fill="#E93B1B" fill-opacity="0.72"/>
<path d="M480.5 118.5H489C489.172 116.42 488.699 115.33 487 113.5C484.522 115.483 483.101 116.578 480.5 118.5Z" fill="#EF4B2D" fill-opacity="0.83"/>
<path d="M495.5 102.227V118.5H499.5V92.2035L495.5 102.227Z" fill="#EF4B2D" fill-opacity="0.68"/>
<path d="M484.5 45.5C489.495 49.9183 491.915 52.7533 495.5 58.5L513.5 45L484.5 45.5Z" fill="#E67216" fill-opacity="0.7"/>
<path d="M143.5 59L148 52L146 19.5C144.019 20.9287 142.494 21.7059 141 23C140.44 38.9904 141.908 46.6069 143.5 59Z" fill="black"/>
<path d="M397.667 41.3109C397.665 41.3109 397.661 41.314 397.656 41.3208C397.653 41.3286 397.648 41.338 397.642 41.3489C397.639 41.3546 397.636 41.3608 397.63 41.3766" stroke="white" stroke-width="0.1"/>
<path d="M397.623 41.3797C397.614 41.3828 397.6 41.3973 397.587 41.4114C397.576 41.4241 397.578 41.4442 397.565 41.4604C397.561 41.464 397.558 41.4671 397.556 41.5089C397.555 41.5507 397.555 41.6312 397.555 41.7141" stroke="black" stroke-width="0.1"/>
<path d="M397.22 42.0641C397.22 42.0258 397.229 41.9527 397.245 41.9391C397.258 41.9279 397.264 41.9089 397.274 41.8923C397.285 41.8731 397.296 41.8527 397.31 41.836C397.322 41.8207 397.333 41.8048 397.345 41.7891C397.357 41.7733 397.372 41.7579 397.383 41.7417C397.395 41.723 397.403 41.7006 397.415 41.685C397.431 41.6653 397.442 41.6516 397.451 41.636C397.46 41.6207 397.463 41.6027 397.47 41.586C397.478 41.5685 397.494 41.5548 397.505 41.5381C397.518 41.518 397.528 41.5027 397.542 41.4813C397.554 41.4621 397.572 41.4381 397.585 41.4204C397.595 41.4055 397.603 41.3871 397.609 41.3699C397.618 41.3484 397.636 41.3371 397.651 41.3157C397.66 41.3079 397.667 41.2995 397.673 41.2897C397.677 41.2849 397.68 41.2808 397.686 41.2734" stroke="black" stroke-width="0.1"/>
<path d="M397.22 42.0641C397.22 42.0258 397.229 41.9527 397.245 41.9391C397.258 41.9279 397.264 41.9089 397.274 41.8923C397.285 41.8731 397.296 41.8527 397.31 41.836C397.322 41.8207 397.333 41.8048 397.345 41.7891C397.357 41.7733 397.372 41.7579 397.383 41.7417C397.395 41.723 397.403 41.7006 397.415 41.685C397.431 41.6653 397.442 41.6516 397.451 41.636C397.46 41.6207 397.463 41.6027 397.47 41.586C397.478 41.5685 397.494 41.5548 397.505 41.5381C397.518 41.518 397.528 41.5027 397.542 41.4813C397.554 41.4621 397.572 41.4381 397.585 41.4204C397.595 41.4055 397.603 41.3871 397.609 41.3699C397.618 41.3484 397.636 41.3371 397.651 41.3157C397.66 41.3079 397.667 41.2995 397.673 41.2897C397.677 41.2849 397.68 41.2808 397.686 41.2734" stroke="black" stroke-opacity="0.2" stroke-width="0.1"/>
<path d="M397.164 42.1297C397.168 42.1224 397.174 42.1058 397.178 42.0762C397.18 42.0559 397.19 42.0402 397.199 42.024C397.211 42.0046 397.231 41.9902 397.245 41.9735C397.248 41.9693 397.252 41.9652 397.255 41.9615C397.258 41.9578 397.261 41.9547 397.264 41.9516" stroke="white" stroke-width="0.1"/>
<path d="M397.252 42.0734C397.242 42.0599 397.234 42.0433 397.222 42.0266C397.217 42.0192 397.217 42.0058 397.216 41.9954C397.216 41.993 397.213 41.9973 397.214 42.0015C397.215 42.0057 397.219 42.0098 397.227 42.0119C397.235 42.0141 397.246 42.0141 397.258 42.0079C397.27 42.0017 397.283 41.9893 397.295 41.9766" stroke="white" stroke-width="0.1"/>
<path d="M398 41.5C396.828 42.6002 396.163 43.433 395 45.5H397L398 41.5Z" fill="black"/>
<path d="M397 42.5L396 44C396.128 43.6058 396.252 43.3877 396.5 43L397 42.5Z" fill="white"/>
<path d="M397.5 41.5C397.078 42.101 396.87 42.4243 396.5 43H397L397.5 41.5Z" fill="white"/>
<path d="M397.5 41.5L400.23 45.2998L395 45.5C395.347 44.7367 395.565 44.299 396 43.5C396.551 42.7511 396.883 42.3101 397.5 41.5Z" fill="black"/>
<path d="M398 41.5H397.5L398 41V41.5Z" fill="black"/>
</svg>
